<?xml version="1.0" encoding="utf-8"?><!DOCTYPE svg PUBLIC "-//W3C//DTD SVG 1.1//EN" "http://www.w3.org/Graphics/SVG/1.1/DTD/svg11.dtd"><svg version="1.1" id="Fousa_1_" xmlns="http://www.w3.org/2000/svg" xmlns:xlink="http://www.w3.org/1999/xlink" x="0px" y="0px" width="200px" height="200px" viewBox="0 0 1417.32 1417.32" enable-background="new 0 0 1417.32 1417.32" xml:space="preserve"><path id="Fousa" fill-rule="evenodd" clip-rule="evenodd" fill="#E54C18" d="M962.258,608.275 c0-53.806-16.729-103.697-45.251-144.785l75.522-135.348l-143.884,68.318c-40.274-26.79-88.617-42.413-140.613-42.413 c-52.231,0-100.776,15.76-141.159,42.771L430.79,320.887l67.937,143.079c-28.32,40.998-44.921,90.711-44.921,144.309 c0,94.516,51.583,176.983,128.128,220.793c-20.861,26.758-61.675,82.23-81.526,130.504 c-27.333,66.471-29.817,161.514-29.817,161.514s40.379,52.182,241.028,52.182s238.543-47.211,238.543-47.211 s12.424-91.318-17.394-166.484c-23.218-58.529-69.029-114.791-88.174-136.832C915.34,777.598,962.258,698.418,962.258,608.275z"/> <path id="Circle" fill-rule="evenodd" clip-rule="evenodd" fill="#E54C18" d="M708.66,142.541 c-296.09,0-536.119,240.028-536.119,536.118c0,296.089,240.028,536.12,536.119,536.12c296.09,0,536.118-240.031,536.118-536.12 C1244.778,382.569,1004.75,142.541,708.66,142.541z M708.66,1144.328c-257.181,0-465.668-208.488-465.668-465.669 S451.479,212.992,708.66,212.992c257.181,0,465.667,208.487,465.667,465.667S965.841,1144.328,708.66,1144.328z"/> <path id="Tail" fill-rule="evenodd" clip-rule="evenodd" fill="#E54C18" d="M937.877,1044.562c0,0,82.535-11.965,148.563,53.236 c66.028,65.201-64.162,113.219,9.49,176.006c37.76,32.188,144.644-26.824,144.644-26.824s-89.138,117.199-171.467,107.914 c-82.87-9.346-41.135-125.551-19.395-177.863c29.587-71.195-118.026-47.664-118.026-47.664L937.877,1044.562z"/></svg>
